<svg width="64" height="64" viewBox="0 0 64 64" xmlns="http://www.w3.org/2000/svg">
  <!-- Background circle -->
  <circle cx="32" cy="32" r="30" fill="#16191d" stroke="#abb2bf" stroke-width="2"/>
  
  <!-- Code brackets representing development theme -->
  <path d="M20 20 L28 20 L28 24 L24 24 L24 40 L28 40 L28 44 L20 44 Z" fill="#4aa5f0"/>
  <path d="M44 20 L36 20 L36 24 L40 24 L40 40 L36 40 L36 44 L44 44 Z" fill="#4aa5f0"/>
  
  <!-- Code lines representing syntax highlighting -->
  <rect x="26" y="26" width="12" height="2" fill="#8cc265"/>
  <rect x="26" y="30" width="8" height="2" fill="#e05561"/>
  <rect x="26" y="34" width="10" height="2" fill="#d18f52"/>
  <rect x="26" y="38" width="6" height="2" fill="#c162de"/>
  
  <!-- Small accent dots -->
  <circle cx="24" cy="48" r="2" fill="#42b3c2"/>
  <circle cx="32" cy="48" r="2" fill="#42b3c2"/>
  <circle cx="40" cy="48" r="2" fill="#42b3c2"/>
</svg>
